<?xml version="1.0" encoding="UTF-8" standalone="no"?>
<!-- Created with Inkscape (http://www.inkscape.org/) -->

<svg
   xmlns:dc="http://purl.org/dc/elements/1.1/"
   xmlns:cc="http://creativecommons.org/ns#"
   xmlns:rdf="http://www.w3.org/1999/02/22-rdf-syntax-ns#"
   xmlns:svg="http://www.w3.org/2000/svg"
   xmlns="http://www.w3.org/2000/svg"
   xmlns:sodipodi="http://sodipodi.sourceforge.net/DTD/sodipodi-0.dtd"
   xmlns:inkscape="http://www.inkscape.org/namespaces/inkscape"
   version="1.1"
   width="1000"
   height="1000"
   viewBox="0 0 1000 1000"
   id="svg2"
   inkscape:version="0.48.5 r10040"
   sodipodi:docname="xing-circle.svg">
  <sodipodi:namedview
     pagecolor="#ffffff"
     bordercolor="#666666"
     borderopacity="1"
     objecttolerance="10"
     gridtolerance="10"
     guidetolerance="10"
     inkscape:pageopacity="0"
     inkscape:pageshadow="2"
     inkscape:window-width="2160"
     inkscape:window-height="1377"
     id="namedview12"
     showgrid="false"
     inkscape:zoom="0.6675088"
     inkscape:cx="367.90811"
     inkscape:cy="446.12736"
     inkscape:window-x="-8"
     inkscape:window-y="-8"
     inkscape:window-maximized="1"
     inkscape:current-layer="svg2" />
  <metadata
     id="metadata19">
    <rdf:RDF>
      <cc:Work
         rdf:about="">
        <dc:format>image/svg+xml</dc:format>
        <dc:type
           rdf:resource="http://purl.org/dc/dcmitype/StillImage" />
        <dc:title />
      </cc:Work>
    </rdf:RDF>
  </metadata>
  <defs
     id="defs17" />
  <g
     transform="translate(0,-24)"
     id="g4">
    <title
       id="title6" />
    <rect
       width="1026"
       height="1026"
       x="-1"
       y="-1"
       id="canvas_background"
       style="fill:none" />
  </g>
  <g
     id="g3759">
    <path
       transform="translate(360.16949,313.55933)"
       d="m 618.64407,186.44067 c 0,264.44144 -214.37213,478.81357 -478.81356,478.81357 -264.44144,0 -478.81357,-214.37213 -478.81357,-478.81357 0,-264.441428 214.37213,-478.81356 478.81357,-478.81356 264.44143,0 478.81356,214.372132 478.81356,478.81356 z"
       sodipodi:ry="478.81357"
       sodipodi:rx="478.81357"
       sodipodi:cy="186.44067"
       sodipodi:cx="139.83051"
       id="path2989"
       style="fill:#ffffff;fill-rule:evenodd;stroke:none;stroke-width:1px;stroke-linecap:butt;stroke-linejoin:miter;stroke-opacity:1"
       sodipodi:type="arc" />
    <g
       id="g9"
       transform="matrix(1.152236,0,0,1.1522004,-91.101283,-91.04402)">
      <title
         id="title11" />
      <g
         style="fill:#000000"
         id="svg_1"
         transform="matrix(0.1,0,0,-0.1,0,1024)">
        <path
           inkscape:connector-curvature="0"
           style="fill:#126567"
           id="svg_2"
           d="M 4820,9439 C 3784,9362 2839,8936 2097,8211 1121,7259 653,5911 826,4557 1042,2864 2236,1454 3876,955 5144,569 6555,798 7630,1563 8951,2504 9638,4065 9434,5663 9218,7356 8024,8766 6384,9265 5896,9414 5327,9477 4820,9439 z M 7375,7774 c 47,-22 72,-73 59,-121 -6,-21 -410,-744 -898,-1607 l -888,-1570 20,-40 c 11,-23 266,-491 567,-1041 571,-1044 576,-1053 544,-1111 -28,-54 -32,-54 -516,-54 -502,0 -491,-1 -563,74 -45,45 -1194,2150 -1188,2174 7,25 1775,3160 1808,3204 15,21 39,47 54,59 59,47 76,48 534,49 372,0 439,-2 467,-16 z M 4028,6673 c 74,-35 113,-94 401,-598 281,-491 284,-497 269,-523 -9,-15 -206,-364 -438,-777 -232,-412 -438,-769 -456,-792 -19,-23 -57,-53 -87,-68 l -53,-26 -446,3 -446,3 -26,24 c -35,33 -51,83 -37,121 5,17 202,370 436,784 l 425,754 -276,478 c -312,540 -311,539 -251,599 l 35,35 457,0 c 412,0 461,-2 493,-17 z" />
      </g>
    </g>
  </g>
</svg>
